<?xml version="1.0" encoding="UTF-8"?>
<svg version="1.1" xmlns="http://www.w3.org/2000/svg" width="1024" height="1024">
<path d="M0 0 C337.92 0 675.84 0 1024 0 C1024 337.92 1024 675.84 1024 1024 C686.08 1024 348.16 1024 0 1024 C0 686.08 0 348.16 0 0 Z " fill="#FDFDFE" transform="translate(0,0)"/>
<path d="M0 0 C0.82309733 -0.00453111 1.64619465 -0.00906223 2.49423432 -0.01373065 C5.23842195 -0.02633982 7.98241023 -0.02475653 10.72662354 -0.02310181 C12.69993341 -0.02908927 14.67324094 -0.03589531 16.64654541 -0.04345703 C21.99795104 -0.06110294 27.34929269 -0.06581185 32.7007246 -0.0670886 C36.04719645 -0.06851166 39.39365211 -0.07278421 42.74011993 -0.07808304 C54.42378266 -0.09657928 66.10739978 -0.10475423 77.79107666 -0.10317993 C88.66729566 -0.10197893 99.54331609 -0.12307422 110.41948485 -0.15466726 C119.76919921 -0.18085458 129.11884882 -0.19154618 138.46859956 -0.19026911 C144.04743322 -0.18976017 149.62609039 -0.19540614 155.20488739 -0.21662521 C160.45480721 -0.23604866 165.70438293 -0.23610389 170.95431519 -0.22159195 C172.87509923 -0.2195078 174.79590505 -0.22418115 176.71665192 -0.23631287 C190.36708852 -0.31690883 202.0832552 0.47884973 212.5635376 10.26742554 C213.92311853 11.74297022 215.26134231 13.23834754 216.58306885 14.74789429 C221.41951128 20.17135077 226.48276464 25.33895065 231.62969971 30.46395874 C233.13160684 31.96047479 234.62804822 33.46230853 236.12408447 34.96469116 C237.10488366 35.9448298 238.08599286 36.92465833 239.06744385 37.90414429 C239.93184082 38.76741333 240.79623779 39.63068237 241.68682861 40.52011108 C243.89037324 42.62454015 246.11387517 44.63457395 248.41583252 46.62631226 C252.56995013 50.23308451 256.51210342 54.02095719 260.4229126 57.88851929 C261.13457581 58.59211075 261.84623901 59.29570221 262.57946777 60.02061462 C264.06991247 61.49733622 265.55889002 62.97553997 267.04644775 64.45516968 C268.56056067 65.95770581 270.07914457 67.45574961 271.60211182 68.9493103 C273.82314533 71.1275857 276.03054592 73.31889489 278.2354126 75.51351929 C278.91150574 76.17210434 279.58759888 76.83068939 280.28417969 77.50923157 C285.67452141 82.92442481 290.09590106 88.84352864 290.2510376 96.76742554 C290.04371643 102.12815856 288.31151089 104.73240066 284.5557251 108.43539429 C283.56959229 109.34224976 283.56959229 109.34224976 282.5635376 110.26742554 C281.41613929 111.45341348 280.27026506 112.64087811 279.1260376 113.82992554 C276.00639548 116.91435725 272.72207394 119.77457208 269.3604126 122.59164429 C267.47188179 124.24704411 267.47188179 124.24704411 265.9541626 126.47445679 C265.49525635 127.06613647 265.0363501 127.65781616 264.5635376 128.26742554 C263.9035376 128.26742554 263.2435376 128.26742554 262.5635376 128.26742554 C262.54371826 127.45998901 262.52389893 126.65255249 262.503479 125.82064819 C262.40847861 122.17756678 262.29869848 118.53507868 262.1885376 114.89242554 C262.1576001 113.62140991 262.1266626 112.35039429 262.0947876 111.04086304 C262.05611572 109.82914429 262.01744385 108.61742554 261.9776001 107.36898804 C261.93046875 105.68796997 261.93046875 105.68796997 261.88238525 103.97299194 C261.82942556 101.12032142 261.82942556 101.12032142 259.5635376 99.26742554 C256.86366126 99.04573481 254.25851285 98.94210515 251.5557251 98.92367554 C250.75627472 98.90905273 249.95682434 98.89442993 249.13314819 98.87936401 C246.56832934 98.83278373 244.00358633 98.79867145 241.4385376 98.76742554 C238.08149161 98.72601985 234.72496648 98.67213621 231.3682251 98.61117554 C230.60645966 98.60589844 229.84469421 98.60062134 229.05984497 98.59518433 C219.7986706 98.42586329 211.93620104 96.03465138 204.5635376 90.26742554 C197.10041486 82.08458866 195.13113602 71.86637217 195.05181885 61.10336304 C195.03386765 60.18527863 195.01591644 59.26719421 194.99742126 58.32128906 C194.94383287 55.42837941 194.90958969 52.53562969 194.8760376 49.64242554 C194.84281895 47.66453893 194.80832519 45.6866733 194.77252197 43.70883179 C194.68813685 38.89514618 194.62108271 34.08150376 194.5635376 29.26742554 C169.0946854 29.19738133 143.62584761 29.14445985 118.15691853 29.11198902 C106.33156937 29.09651232 94.50628001 29.07540742 82.68096924 29.04110718 C72.37545885 29.01122946 62.06999178 28.99185638 51.76443928 28.98516005 C46.30643459 28.98124505 40.84855379 28.97202748 35.39058876 28.95023537 C30.25493259 28.92989598 25.11945155 28.92358661 19.98375893 28.92810249 C18.09754485 28.92727615 16.21132501 28.92129539 14.32514572 28.90980911 C11.75179051 28.89490486 9.17909839 28.8984643 6.60572815 28.90666199 C5.48363566 28.8935542 5.48363566 28.8935542 4.33887464 28.88018161 C-0.09766024 28.91843776 -2.92381983 29.51182623 -6.4364624 32.26742554 C-8.70014924 35.66295579 -8.68879285 36.82585749 -8.69652462 40.8075695 C-8.70359021 41.96694649 -8.7106558 43.12632347 -8.7179355 44.32083309 C-8.71431288 46.24030165 -8.71431288 46.24030165 -8.71061707 48.19854736 C-8.71506747 49.56700977 -8.72038086 50.9354696 -8.72648579 52.30392563 C-8.74069986 56.07283679 -8.74232844 59.84166563 -8.74188888 63.61059976 C-8.74353408 67.67204774 -8.75659496 71.7334615 -8.76808167 75.79489136 C-8.79095313 84.67906311 -8.79885445 93.563211 -8.80390811 102.4474082 C-8.80716237 107.99220607 -8.81368316 113.53699698 -8.8209095 119.08179092 C-8.84047753 134.42686935 -8.85688078 149.7719413 -8.85978603 165.117033 C-8.8599736 166.09941677 -8.86016117 167.08180053 -8.86035443 168.0939535 C-8.86072068 170.08557264 -8.86108438 172.07719178 -8.86144554 174.06881092 C-8.86162835 175.05748363 -8.86181116 176.04615633 -8.86199951 177.06478882 C-8.86218006 178.05466487 -8.86236061 179.04454091 -8.86254663 180.0644132 C-8.86608972 196.11082352 -8.89311957 212.15709975 -8.9304974 228.20346354 C-8.96854548 244.66900056 -8.98794325 261.13447098 -8.98824555 277.60005295 C-8.98883088 286.8485772 -8.99737147 296.09694148 -9.02624321 305.34542465 C-9.05071027 313.21928961 -9.0580717 321.09293627 -9.04299568 328.96682893 C-9.03580771 332.98575779 -9.03676466 337.00425517 -9.05940628 341.02313614 C-9.07992826 344.70094318 -9.07746071 348.37798516 -9.05653144 352.05578329 C-9.05135904 354.0193931 -9.07086801 355.98301975 -9.09119314 357.94653118 C-9.26200887 364.79927949 -9.26200887 364.79927949 -6.09459496 370.55154133 C-2.75525359 372.70716111 -0.68303437 372.90445055 3.28155518 372.92684937 C3.93577454 372.93733307 4.5899939 372.94781677 5.26403809 372.95861816 C7.41253659 372.98727153 9.55941428 372.98108931 11.70806885 372.97445679 C13.20309967 372.98757796 14.69811278 373.00288348 16.19309998 373.02027893 C20.11733368 373.06009393 24.04110328 373.07031701 27.96551514 373.0743103 C31.97424364 373.08364851 35.98270022 373.12106623 39.99127197 373.15609741 C47.8486989 373.2206374 55.70585801 373.25390672 63.5635376 373.26742554 C63.40345215 374.03401489 63.2433667 374.80060425 63.07843018 375.59042358 C61.67063127 382.90977633 61.64737573 389.94294217 65.2979126 396.54867554 C66.86005957 398.6701097 68.68917626 400.4206984 70.5635376 402.26742554 C60.41869772 402.33711821 50.27391537 402.39033437 40.12888432 402.42286205 C35.41748118 402.43847839 30.70624256 402.45964257 25.99493408 402.4937439 C21.44321018 402.52648172 16.89164393 402.54430884 12.33981133 402.55205727 C10.60837767 402.55757498 8.87695206 402.56834946 7.14558601 402.58461571 C-6.23968723 402.70530187 -16.24728816 401.8418964 -26.4364624 392.26742554 C-36.07092669 382.19589482 -38.03731934 371.5447828 -37.9511261 357.96580505 C-37.95646099 356.54592512 -37.96353206 355.12605085 -37.97217315 353.70618719 C-37.99070278 349.83194292 -37.98452928 345.95808342 -37.97402012 342.0838238 C-37.96700043 337.89489447 -37.98304696 333.706042 -37.99601746 329.51713562 C-38.01761639 321.32163413 -38.01754114 313.12627173 -38.00939191 304.93075115 C-38.00308224 298.26729641 -38.0042378 291.60388211 -38.01066399 284.94042778 C-38.01156564 283.99065858 -38.0124673 283.04088937 -38.01339627 282.06233929 C-38.01524755 280.13265693 -38.01711011 278.20297458 -38.01898383 276.27329224 C-38.03554796 258.19383864 -38.02685487 240.11446316 -38.00999825 222.03501426 C-37.99530225 205.50884381 -38.00993077 188.98285518 -38.03876842 172.45670814 C-38.06818816 155.46993572 -38.0791272 138.48324714 -38.06958622 121.49645036 C-38.06856371 119.57371328 -38.0675691 117.65097618 -38.06660271 115.72823906 C-38.06612632 114.78231854 -38.06564993 113.83639802 -38.0651591 112.86181324 C-38.06299839 106.2102983 -38.07278074 99.55886307 -38.08737373 92.9073658 C-38.10492283 84.79562652 -38.10474276 76.68411899 -38.08202208 68.57238872 C-38.07090331 64.43711459 -38.06766333 60.30224837 -38.08632278 56.16699219 C-38.10321254 52.37501675 -38.09666328 48.58380231 -38.072106 44.79187541 C-38.06496485 42.78413053 -38.08218265 40.77634353 -38.10051733 38.76866966 C-37.98834597 27.79359959 -35.18294835 18.09790104 -27.45599365 10.01742554 C-19.29245355 2.94341013 -10.76957771 -0.04400017 0 0 Z " fill="#00376E" transform="translate(363.43646240234375,162.73257446289063)"/>
<path d="M0 0 C6.04265914 5.00255879 11.56098043 10.43177324 17.08984375 15.9921875 C18.04368954 16.94790248 18.99775941 17.90339388 19.95204163 18.8586731 C22.44153194 21.35194916 24.92800224 23.84821525 27.41381836 26.34515381 C29.95957994 28.90121509 32.50823777 31.45438505 35.05664062 34.0078125 C40.04057069 39.00241019 45.02131048 44.00017799 50 49 C48.44453884 52.27900042 46.80463192 54.40897696 44.18359375 56.94140625 C43.42377197 57.68422852 42.6639502 58.42705078 41.88110352 59.19238281 C41.07471436 59.97452148 40.2683252 60.75666016 39.4375 61.5625 C32.80672483 68.09634733 26.67022237 74.61152843 21 82 C20.12744696 83.08530517 19.25228653 84.16851747 18.375 85.25 C9.40595897 96.3635728 1.62045838 108.03622937 -5.5625 120.375 C-6.02382324 121.16737061 -6.48514648 121.95974121 -6.96044922 122.77612305 C-9.24240491 126.75238035 -11.39782042 130.7477219 -13.37890625 134.8828125 C-13.75909912 135.65963379 -14.13929199 136.43645508 -14.53100586 137.23681641 C-15.23718439 138.69771241 -15.91845512 140.17103656 -16.56860352 141.65771484 C-18.37947545 145.38697212 -19.86993438 147.33450693 -23.8359375 148.7421875 C-25.54885116 149.19470821 -27.27186275 149.60962858 -29 150 C-30.09650879 150.27166992 -31.19301758 150.54333984 -32.32275391 150.82324219 C-34.84526707 151.44290084 -37.36825871 152.05273007 -39.89624023 152.64892578 C-58.84053745 157.13282701 -76.83288879 163.03576151 -94.7421875 170.71875 C-95.49357498 171.04060272 -96.24496246 171.36245544 -97.01911926 171.69406128 C-100.75172215 173.29682614 -104.47539061 174.91665226 -108.18725586 176.56689453 C-109.54797379 177.16187656 -110.9087304 177.75677014 -112.26953125 178.3515625 C-114.07321167 179.15327881 -114.07321167 179.15327881 -115.91333008 179.97119141 C-118.93713629 180.97904709 -120.11758373 181.21463391 -123 180 C-119.76375336 173.71787416 -114.52581762 169.28260066 -109.24609375 164.7265625 C-105.15527471 161.16190141 -101.19247436 157.47719902 -97.25 153.75 C-88.03650248 145.07733671 -78.76655731 136.46339018 -69.29296875 128.07421875 C-67.82049585 126.74222027 -66.38141277 125.37180365 -64.98828125 123.95703125 C-60.32432436 119.36875723 -56.85815761 118.37043357 -50.43359375 117.48828125 C-47.79417786 117.13329627 -47.79417786 117.13329627 -45.3125 115.0625 C-43.30722464 110.38352417 -43.24697615 106.00760859 -44 101 C-46.02020738 97.46463709 -48.08438925 95.23062052 -52 94 C-56.32135899 93.519849 -58.4668367 93.70826914 -62.3125 95.8125 C-65.14569422 97.89880609 -65.14569422 97.89880609 -67 101 C-67.09486304 102.72706528 -67.12987916 104.45783828 -67.125 106.1875 C-67.63474206 113.10542793 -70.99237407 115.64749359 -76 120 C-77.19074167 121.31187773 -78.35830454 122.64522313 -79.5 124 C-82.51762353 127.51141648 -85.73359081 130.75307402 -89.03125 134 C-90.93986455 135.93891002 -92.72710552 137.93699551 -94.5 140 C-96.89676588 142.78896393 -99.37959391 145.41990785 -102 148 C-104.55869259 150.51955389 -106.98170611 153.08118782 -109.3125 155.8125 C-112.29450074 159.26750775 -115.42012669 162.56475929 -118.625 165.8125 C-119.52476562 166.72644531 -120.42453125 167.64039063 -121.3515625 168.58203125 C-123.79013635 170.80839882 -126.10852019 172.42899743 -129 174 C-129.93544257 171.47050186 -130.08058148 170.25158864 -129.24658203 167.64770508 C-128.83778809 166.78040771 -128.42899414 165.91311035 -128.0078125 165.01953125 C-127.32803345 163.54178223 -127.32803345 163.54178223 -126.63452148 162.03417969 C-126.13637939 160.97102539 -125.6382373 159.90787109 -125.125 158.8125 C-115.82984191 138.23301109 -109.03273747 117.40902866 -103.36108398 95.58886719 C-103.05815178 94.42862785 -103.05815178 94.42862785 -102.74909973 93.24494934 C-102.37340853 91.80081003 -102.00163741 90.35564204 -101.6348114 88.90922546 C-98.38820176 76.39242345 -98.38820176 76.39242345 -95.15356445 73.14794922 C-94.11268677 72.54490967 -94.11268677 72.54490967 -93.05078125 71.9296875 C-92.25365723 71.45241211 -91.4565332 70.97513672 -90.63525391 70.48339844 C-89.76562012 69.99387695 -88.89598633 69.50435547 -88 69 C-87.08009277 68.45633789 -86.16018555 67.91267578 -85.21240234 67.35253906 C-82.21649202 65.58776298 -79.20360181 63.85500842 -76.1875 62.125 C-63.11809189 54.55282951 -50.75995244 46.49711437 -39 37 C-38.45601562 36.56187988 -37.91203125 36.12375977 -37.3515625 35.67236328 C-23.98651572 24.78188942 -12.0760464 12.27108753 0 0 Z " fill="#00386E" transform="translate(574,370)"/>
<path d="M0 0 C10.68108238 6.44338466 20.01220447 16.91568851 23.78125 28.859375 C25.66975058 36.73406611 24.11321195 44.43853399 20.27599907 51.53111935 C15.92836365 58.23238188 10.55879365 63.69725791 4.89892578 69.29321289 C3.84322183 70.34806891 2.78818142 71.40358936 1.73374939 72.4597168 C-1.10830314 75.30262421 -3.95945821 78.13623621 -6.81243277 80.96817708 C-9.80070232 83.93759469 -12.7803845 86.91560489 -15.76101685 89.89268494 C-21.3965748 95.51894733 -27.03973083 101.13752347 -32.68570817 106.75332779 C-39.11731683 113.15131468 -45.54033067 119.55790077 -51.96266341 125.96519673 C-65.1648371 139.13607783 -78.37767944 152.29620842 -91.59765625 165.44921875 C-95.25095273 163.73465827 -97.59785609 161.69112312 -100.45800781 158.81591797 C-100.92676331 158.34745453 -101.3955188 157.87899109 -101.878479 157.39633179 C-103.41987057 155.8535518 -104.95406498 154.30381911 -106.48828125 152.75390625 C-107.5582988 151.68015683 -108.62876006 150.60684942 -109.699646 149.53396606 C-112.51197504 146.71401423 -115.31824514 143.88810721 -118.12329102 141.06091309 C-120.98871148 138.17500505 -123.85982793 135.29477618 -126.73046875 132.4140625 C-132.35845137 126.76465386 -137.98004509 121.1089405 -143.59765625 115.44921875 C-138.4984303 109.29230001 -132.95495307 103.64467097 -127.31298828 97.98754883 C-126.28058091 96.94886438 -125.24835948 95.90999508 -124.21630859 94.87095642 C-120.84957696 91.48334704 -117.47765781 88.10092534 -114.10546875 84.71875 C-112.93981632 83.54904529 -111.77419633 82.37930824 -110.60860825 81.20953941 C-105.13513473 75.71705782 -99.65928328 70.22696073 -94.18047822 64.73979741 C-87.8721653 58.42169867 -81.57223337 52.09539361 -75.27922928 45.76204759 C-70.40114503 40.85377444 -65.51538202 35.95323011 -60.62383544 31.05837363 C-57.70790407 28.14009702 -54.79534084 25.21863983 -51.89087296 22.28894997 C-49.15976877 19.53450838 -46.41922797 16.78981388 -43.67131042 14.05214882 C-42.66814345 13.04947576 -41.66835443 12.04340914 -40.67234421 11.03362656 C-29.36843144 -0.41772208 -15.97544971 -7.37925959 0 0 Z " fill="#00386F" transform="translate(729.59765625,242.55078125)"/>
<path d="M0 0 C9.9 0 19.8 0 30 0 C31.8823896 5.6471688 33.57505796 10.95279749 34.96118164 16.68774414 C35.13397141 17.39797226 35.30676117 18.10820038 35.48478699 18.83995056 C36.04687162 21.15415715 36.60354766 23.46962709 37.16015625 25.78515625 C37.55429699 27.4123099 37.94878865 29.03937859 38.34361267 30.66636658 C39.37696987 34.92851855 40.40577103 39.19175701 41.43353271 43.45526123 C42.47715479 47.78135576 43.5247986 52.10647575 44.57226562 56.43164062 C45.75153039 61.30143472 46.93044451 66.17130972 48.10597229 71.04200745 C48.28547424 71.78541382 48.4649762 72.52882019 48.6499176 73.29475403 C49.13228913 75.29284604 49.61432254 77.29101966 50.09632874 79.28919983 C51.04798733 83.1970533 52.02075028 87.09898082 53 91 C53.20996109 90.22866226 53.41992218 89.45732452 53.63624573 88.66261292 C55.64927994 81.26793395 57.66320302 73.87349784 59.6780405 66.47931004 C60.71298779 62.68107535 61.74763195 58.88275872 62.78149414 55.08422852 C67.78473925 36.70268433 72.83875683 18.3380009 78 0 C86.25 0 94.5 0 103 0 C105.04426511 5.45137362 106.88723952 10.76276903 108.4519043 16.34375 C108.7890596 17.53056114 108.7890596 17.53056114 109.13302612 18.74134827 C109.86662711 21.32667014 110.5954597 23.91330952 111.32421875 26.5 C111.83530136 28.30468979 112.34668395 30.10929465 112.85835266 31.91381836 C114.19786596 36.64098321 115.5333252 41.36928389 116.86791992 46.09783936 C118.23304958 50.93180941 119.6020427 55.76468493 120.97070312 60.59765625 C123.65090021 70.06404185 126.32681217 79.53163288 129 89 C132.30353308 77.27517904 135.44981167 65.5229054 138.42578125 53.7109375 C138.8220174 52.14478017 139.21843958 50.5786699 139.61503601 49.01260376 C140.64100872 44.95924386 141.66451333 40.90526503 142.68743896 36.85113525 C143.73865286 32.68682547 144.79229116 28.52312919 145.84570312 24.359375 C147.89945927 16.24016907 149.95037347 8.1202494 152 0 C161.9 0 171.8 0 182 0 C176.32286289 21.36102573 170.3240798 42.62128086 164.26544189 63.87658691 C162.2428613 70.9737627 160.22349233 78.07185358 158.20397949 85.1699028 C157.71634691 86.88371363 157.22863614 88.59750222 156.74084473 90.31126785 C152.78881849 104.19697812 148.87835308 118.09348959 145 132 C135.43 132 125.86 132 116 132 C114.16632038 127.11018767 112.48521338 122.50814809 111.07055664 117.53076172 C110.72332047 116.31524628 110.37608429 115.09973083 110.01832581 113.84738159 C109.64886932 112.54150241 109.27948123 111.23560388 108.91015625 109.9296875 C108.52075398 108.56210149 108.13105402 107.19460021 107.74107361 105.82717896 C106.71879736 102.23972062 105.70048311 98.65114975 104.68304443 95.06231689 C103.65888774 91.45233327 102.63107444 87.84339141 101.60351562 84.234375 C100.08659997 78.90535774 98.5717819 73.57575169 97.05883789 68.24560547 C95.04741695 61.16138656 93.02538589 54.08023693 91 47 C88.97760462 52.2419899 87.19127558 57.46628695 85.65576172 62.86889648 C85.44235138 63.60972977 85.22894104 64.35056305 85.00906372 65.11384583 C84.55097954 66.70554495 84.09435186 68.29766386 83.63906479 69.89016533 C82.91909541 72.40813781 82.19506587 74.92491184 81.47000122 77.44142151 C79.67284754 83.68195594 77.88258546 89.92446288 76.09216309 96.16693115 C74.57307394 101.46240433 73.05136624 106.75711086 71.52606583 112.05079842 C70.81158581 114.53461249 70.10103072 117.01952813 69.39059448 119.50450134 C68.95573995 121.01534513 68.52070177 122.52613607 68.08544922 124.03686523 C67.88804138 124.73135773 67.69063354 125.42585022 67.48724365 126.14138794 C66.11385115 130.88614885 66.11385115 130.88614885 65 132 C62.92737924 132.08767112 60.85179706 132.10695873 58.77734375 132.09765625 C57.51728516 132.09443359 56.25722656 132.09121094 54.95898438 132.08789062 C53.61848891 132.07953403 52.27799412 132.07106907 50.9375 132.0625 C49.59310058 132.0574866 48.2486994 132.05292342 46.90429688 132.04882812 C43.60282059 132.03699488 40.30143197 132.02050971 37 132 C32.04673503 116.85486021 27.75865115 101.55723344 23.5625 86.1875 C22.33800381 81.72056491 21.11178629 77.25410291 19.88549423 72.7876606 C19.34626263 70.82304754 18.80750657 68.85830455 18.26882935 66.89353943 C15.73867184 57.66848105 13.18663756 48.44965128 10.62109375 39.234375 C10.27180313 37.97945755 9.92251251 36.7245401 9.56263733 35.43159485 C8.20852904 30.56838593 6.85373435 25.70537012 5.49710083 20.84286499 C4.56993254 17.51923313 3.64423377 14.19519498 2.71875 10.87109375 C2.44143539 9.8791803 2.16412079 8.88726685 1.87840271 7.86529541 C1.62913528 6.96929626 1.37986786 6.07329712 1.12304688 5.15014648 C0.90483276 4.36800278 0.68661865 3.58585907 0.46179199 2.78001404 C0 1 0 1 0 0 Z " fill="#01376E" transform="translate(69,675)"/>
<path d="M0 0 C7.92 0 15.84 0 24 0 C27.46441335 10.93806561 30.73298485 21.90574473 33.828125 32.953125 C34.26680354 34.51256414 34.70567058 36.07195027 35.14471436 37.63128662 C36.05359505 40.86106156 36.9610164 44.09124115 37.8671875 47.32177734 C39.02741168 51.45799197 40.1901927 55.59348219 41.35390091 59.7287178 C42.47113023 63.69912274 43.58720575 67.66985169 44.703125 71.640625 C44.91434242 72.39189919 45.12555984 73.14317337 45.3431778 73.91721344 C45.93937957 76.03870729 46.53476917 78.16042725 47.12988281 80.28222656 C47.63687714 82.08847504 47.63687714 82.08847504 48.15411377 83.93121338 C48.8019993 86.28167419 49.42557414 88.63082505 50 91 C54.19383096 75.98179469 58.31369164 60.94819806 62.24609375 45.859375 C62.5055522 44.86450325 62.5055522 44.86450325 62.77025223 43.84953308 C64.36067628 37.74899672 65.94565492 31.64705023 67.52807617 25.54443359 C68.40974296 22.14512208 69.29470566 18.74668264 70.18171883 15.34876251 C70.67458174 13.4564755 71.16355276 11.56317617 71.65245056 9.66986084 C71.94688553 8.54227356 72.2413205 7.41468628 72.54467773 6.25292969 C72.80256577 5.25896179 73.0604538 4.2649939 73.32615662 3.24090576 C74 1 74 1 75 0 C77.07262076 -0.08767112 79.14820294 -0.10695873 81.22265625 -0.09765625 C82.48271484 -0.09443359 83.74277344 -0.09121094 85.04101562 -0.08789062 C86.38151109 -0.07953403 87.72200588 -0.07106907 89.0625 -0.0625 C90.40689942 -0.0574866 91.7513006 -0.05292342 93.09570312 -0.04882812 C96.39718156 -0.03699487 99.69856167 -0.01967279 103 0 C100.41428202 10.55930724 97.6511687 21.05094065 94.69140625 31.51171875 C94.28357983 32.95956137 93.87593087 34.407454 93.46844482 35.85539246 C92.39107132 39.68092257 91.31055218 43.50555652 90.22903824 47.32991791 C89.55886744 49.70034855 88.8894702 52.07099634 88.2203064 54.44171143 C82.8970015 73.2993391 77.56140147 92.15367949 72.14401245 110.98452759 C71.59155331 112.90496534 71.04005324 114.82567927 70.48953247 116.74667358 C69.74261303 119.35036982 68.9913081 121.9527521 68.23828125 124.5546875 C68.02258484 125.30840134 67.80688843 126.06211517 67.58465576 126.83866882 C66.11508748 131.88491252 66.11508748 131.88491252 65 133 C62.92737924 133.08767112 60.85179706 133.10695873 58.77734375 133.09765625 C57.51728516 133.09443359 56.25722656 133.09121094 54.95898438 133.08789062 C53.61848891 133.07953403 52.27799412 133.07106907 50.9375 133.0625 C49.59310058 133.0574866 48.2486994 133.05292342 46.90429688 133.04882812 C43.60282059 133.03699488 40.30143197 133.02050971 37 133 C34.47949388 126.59823834 32.52368215 120.12712273 30.671875 113.50390625 C30.35978088 112.39812729 30.04768677 111.29234833 29.72613525 110.15306091 C28.73087584 106.62377011 27.74037602 103.09316389 26.75 99.5625 C26.10057055 97.25707407 25.45083343 94.95173479 24.80078125 92.64648438 C20.51465526 77.43638738 16.25689825 62.21829873 12 47 C5.93383715 66.89860387 0.1417971 86.86978906 -5.5625 106.875 C-5.74612091 107.51895721 -5.92974182 108.16291443 -6.118927 108.8263855 C-8.41597713 116.88330492 -10.70842266 124.94152065 -13 133 C-22.57 133 -32.14 133 -42 133 C-43.96320849 127.76477736 -45.69239247 122.85125359 -47.16967773 117.50634766 C-47.46360381 116.44888903 -47.46360381 116.44888903 -47.76346779 115.3700676 C-48.40685616 113.05231189 -49.0451918 110.73319611 -49.68359375 108.4140625 C-50.14005957 106.76671625 -50.59689012 105.11947103 -51.05406189 103.47232056 C-52.02007336 99.98961281 -52.98402938 96.50634608 -53.94622803 93.02258301 C-56.18117963 84.93086552 -58.42508296 76.84163093 -60.67004395 68.75268555 C-61.16347633 66.97476638 -61.6567828 65.19681227 -62.14996338 63.41882324 C-66.61806861 47.31402889 -71.17242829 31.23549056 -75.84936523 15.18994141 C-76.07145157 14.4228183 -76.2935379 13.65569519 -76.52235413 12.86532593 C-77.09429625 10.89010371 -77.67069511 8.91617337 -78.24755859 6.94238281 C-79 4 -79 4 -79 1 C-69.1 1 -59.2 1 -49 1 C-45.65669723 12.86731145 -42.50343437 24.7513859 -39.57421875 36.7265625 C-39.17803538 38.33757202 -38.78161212 39.94852257 -38.38496399 41.55941772 C-37.35845795 45.73102831 -36.33513753 49.90341347 -35.31256104 54.07598877 C-34.26179258 58.36104328 -33.20789938 62.64532912 -32.15429688 66.9296875 C-30.09986727 75.28572419 -28.04881443 83.64258476 -26 92 C-25.85125427 91.46686188 -25.70250854 90.93372375 -25.54925537 90.38442993 C-17.13384233 60.22700648 -8.6390154 30.09415255 0 0 Z " fill="#01376E" transform="translate(620,674)"/>
<path d="M0 0 C9.90345158 7.48186561 13.98713354 17.0975455 17.31640625 28.75 C17.31640625 35.68 17.31640625 42.61 17.31640625 49.75 C-4.13359375 49.75 -25.58359375 49.75 -47.68359375 49.75 C-44.68687068 61.73835194 -44.68687068 61.73835194 -36.68359375 68.75 C-35.76320313 69.306875 -35.76320313 69.306875 -34.82421875 69.875 C-29.3355598 72.11853943 -21.98976955 71.48808276 -16.43359375 69.625 C-11.75189876 67.42390675 -11.75189876 67.42390675 -4.68359375 61.75 C1.58640625 64.72 7.85640625 67.69 14.31640625 70.75 C12.42063459 78.33308666 7.02190688 82.59794292 0.50390625 86.5625 C-12.87690093 93.77134815 -28.03816144 95.31258401 -42.80859375 91.125 C-56.15672674 86.24779756 -65.29288517 78.43429394 -71.68359375 65.75 C-77.07445317 52.8916466 -78.02704653 35.89755035 -72.91650391 22.78125 C-67.0054137 9.04317152 -59.74259439 0.45007527 -45.71484375 -5.51171875 C-29.83450602 -11.1130755 -14.15025376 -9.08523516 0 0 Z " fill="#01366D" transform="translate(521.68359375,716.25)"/>
<path d="M0 0 C5.79755877 5.28222021 9.89727803 10.83692583 13 18 C13.30292969 18.67160156 13.60585938 19.34320312 13.91796875 20.03515625 C17.45713266 29.45631089 16 37.25063826 16 48 C-5.45 48 -26.9 48 -49 48 C-45.65229644 59.99553053 -45.65229644 59.99553053 -37.4375 67.3125 C-31.18914388 70.17487543 -24.22880955 69.97182402 -17.75 67.875 C-14.05438268 66.32887439 -11.52561209 63.94032382 -8.8359375 61.01171875 C-7 60 -7 60 -4.25 60.60546875 C-0.63554848 62.15638124 2.87733422 63.82870401 6.375 65.625 C7.01566406 65.94984375 7.65632812 66.2746875 8.31640625 66.609375 C9.87947501 67.40257407 11.44000622 68.20077031 13 69 C11.84219951 75.29118097 7.28050513 79.38570985 2.21875 82.96875 C-7.34663861 88.78687297 -16.17874677 91.56908654 -27.375 91.4375 C-28.2932959 91.42920166 -29.2115918 91.42090332 -30.15771484 91.41235352 C-42.88134508 91.09656654 -53.47863841 86.69690465 -63.03125 78.19140625 C-72.64718456 68.04828229 -76.39927692 55.40372931 -76.3125 41.75 C-76.30686035 40.82268066 -76.3012207 39.89536133 -76.29541016 38.93994141 C-76.05300922 25.21908827 -72.38778824 13.49792725 -62.9375 3.25 C-45.47307386 -13.15419117 -18.92436359 -15.31405524 0 0 Z " fill="#01366D" transform="translate(944,718)"/>
<path d="M0 0 C0.79477145 -0.00594224 1.5895429 -0.01188449 2.40839833 -0.0180068 C5.0744881 -0.03536532 7.7403981 -0.03839589 10.40653992 -0.04138184 C12.31693404 -0.05063925 14.22732446 -0.06068872 16.13771057 -0.07147217 C21.32992548 -0.09771288 26.52208867 -0.11060843 31.71435952 -0.11949348 C34.95810088 -0.12535571 38.20182811 -0.13356543 41.44556236 -0.14250183 C51.59408354 -0.16984887 61.74257241 -0.18918398 71.89112788 -0.19690561 C83.60713571 -0.20586884 95.32267707 -0.24097464 107.03854305 -0.2989068 C116.09429421 -0.34213152 125.14991409 -0.36231365 134.20576733 -0.36498785 C139.61471974 -0.36708446 145.02323358 -0.37890972 150.43207741 -0.41462708 C155.52037492 -0.4475743 160.60790385 -0.45190759 165.69626999 -0.43434906 C167.56230795 -0.43280752 169.4283871 -0.44150473 171.29432106 -0.46126556 C173.84556558 -0.48669666 176.39408595 -0.47496475 178.9453125 -0.45410156 C179.68092905 -0.47021437 180.4165456 -0.48632718 181.17445356 -0.50292826 C186.44208504 -0.40241797 189.09160217 1.29061192 192.82313317 4.70125437 C195.49010626 7.84516014 195.44360503 11.30716901 195.37797546 15.28869629 C194.92008381 19.53460074 192.73343665 21.76760934 189.66313171 24.53088379 C185.39514516 27.51847438 181.60549154 27.42932047 176.59164429 27.42805481 C175.81335591 27.4317315 175.03506753 27.43540819 174.23319465 27.43919629 C171.61697889 27.45023737 169.00080284 27.45407766 166.38456726 27.45788574 C164.51210911 27.46415 162.6396522 27.47079677 160.76719666 27.47779846 C155.67416299 27.49520988 150.5811387 27.50576032 145.48808265 27.51400399 C142.30717604 27.51915318 139.12627236 27.52522891 135.94536781 27.53151512 C125.99600517 27.55056643 116.04664995 27.56479847 106.09727257 27.57312709 C94.60662277 27.58290442 83.11616535 27.60923718 71.62558335 27.64962798 C62.74736926 27.67976691 53.86921038 27.6945938 44.99094611 27.6979081 C39.68662314 27.70026084 34.38250571 27.70925064 29.07823753 27.73436928 C24.08858238 27.7576165 19.0992686 27.7618967 14.10957336 27.75160789 C12.27860187 27.75111163 10.44761376 27.75745866 8.6166935 27.77116394 C6.11590872 27.78883567 3.61635539 27.78180061 1.11557007 27.76863098 C0.03009849 27.78508485 0.03009849 27.78508485 -1.0773018 27.80187112 C-6.12082018 27.73779605 -8.9423932 26.42622638 -12.83686829 23.28088379 C-16.12059066 19.47867894 -17.55925567 16.4286181 -17.29389954 11.30822754 C-16.34383315 7.09383049 -13.81232229 3.60294366 -10.23389912 1.20810699 C-6.84946956 -0.10106333 -3.57704837 -0.00835084 0 0 Z " fill="#02386F" transform="translate(398.8368682861328,303.7191162109375)"/>
<path d="M0 0 C0.96760254 0.00757324 1.93520508 0.01514648 2.93212891 0.02294922 C13.70552932 0.27080075 23.3833296 2.58118593 31.1875 10.4375 C35.53792445 15.65420153 37.46547665 19.60732507 38.1875 26.4375 C35.27309401 27.1361179 32.35663913 27.8217031 29.4375 28.5 C28.6125 28.69916016 27.7875 28.89832031 26.9375 29.10351562 C26.13828125 29.28720703 25.3390625 29.47089844 24.515625 29.66015625 C23.7824707 29.83297119 23.04931641 30.00578613 22.29394531 30.18383789 C19.93818548 30.46752292 18.41083256 30.24719214 16.1875 29.4375 C13.1875 26.11607143 13.1875 26.11607143 13.1875 23.4375 C5.81193851 20.4474075 -0.72815734 18.78943191 -8.375 21.875 C-10.66971741 23.22348512 -10.66971741 23.22348512 -11.8125 24.4375 C-12.31320321 27.81107334 -12.31320321 27.81107334 -11.8125 31.4375 C-8.07442326 35.26200626 -3.91702672 36.59948275 1.125 37.9375 C1.87064209 38.14761719 2.61628418 38.35773437 3.38452148 38.57421875 C6.95740605 39.57756044 10.54194043 40.53215983 14.1328125 41.46875 C24.0911554 44.1357792 32.46700992 47.38309373 38.1875 56.4375 C41.20977393 63.9310833 41.69012398 72.67269779 38.625 80.25 C33.68978476 89.57397066 27.04529967 94.72605025 17.1875 98.4375 C11.04066054 100.21782792 5.13125935 100.79482864 -1.25 100.75 C-2.08257324 100.74508545 -2.91514648 100.7401709 -3.77294922 100.73510742 C-9.8638695 100.61895942 -15.21693839 99.99400429 -20.8125 97.4375 C-21.97458984 96.90962891 -21.97458984 96.90962891 -23.16015625 96.37109375 C-31.28653732 92.26042019 -36.56202763 86.95670038 -40.28125 78.6484375 C-40.9285775 75.95441277 -40.51967684 74.08941315 -39.8125 71.4375 C-37.06374318 70.76531493 -34.31369274 70.09957565 -31.5625 69.4375 C-30.78519531 69.24671875 -30.00789062 69.0559375 -29.20703125 68.859375 C-28.45292969 68.67890625 -27.69882812 68.4984375 -26.921875 68.3125 C-26.23061523 68.14492188 -25.53935547 67.97734375 -24.82714844 67.8046875 C-22.8125 67.4375 -22.8125 67.4375 -18.8125 67.4375 C-17.42578125 69.046875 -17.42578125 69.046875 -16.125 71.1875 C-12.80777995 75.90012496 -9.34288356 77.93949151 -3.8125 79.4375 C2.08007221 80.40294968 6.89260283 78.90236592 12.1875 76.4375 C14.49010759 73.62151813 14.49010759 73.62151813 14.0625 70.4375 C13.02404613 66.87708672 12.27986876 66.34097524 9.1875 64.4375 C6.46887947 63.46315473 6.46887947 63.46315473 3.4609375 62.75390625 C2.34589844 62.46580078 1.23085938 62.17769531 0.08203125 61.88085938 C-1.07941406 61.59017578 -2.24085938 61.29949219 -3.4375 61 C-30.3683214 54.21392099 -30.3683214 54.21392099 -37.3125 42.875 C-40.17615524 36.26162579 -40.05009372 28.26693957 -37.859375 21.48828125 C-33.37384751 11.9920221 -25.48005232 5.44081608 -15.69140625 1.78515625 C-10.4545589 0.12629926 -5.46157496 -0.05985027 0 0 Z " fill="#01366D" transform="translate(817.8125,708.5625)"/>
<path d="M0 0 C0 8.91 0 17.82 0 27 C7.92 27 15.84 27 24 27 C24 33.6 24 40.2 24 47 C16.41 47 8.82 47 1 47 C1.07401469 53.60262091 1.15686133 60.203891 1.26245117 66.8059082 C1.29568351 69.0512795 1.32372069 71.296734 1.34643555 73.54223633 C1.38001202 76.77200743 1.43233073 80.00101727 1.48828125 83.23046875 C1.49467117 84.23272995 1.5010611 85.23499115 1.50764465 86.2676239 C1.63397407 93.12745655 1.63397407 93.12745655 5 99 C7.79201751 100.89356789 9.97611603 101.2526869 13.3125 101.1875 C14.03050781 101.18105469 14.74851562 101.17460938 15.48828125 101.16796875 C18.67554873 100.95482334 21.83771873 100.45175447 25 100 C25 107.26 25 114.52 25 122 C13.87044863 124.47323364 -1.34859873 126.82672474 -12 121 C-20.23214056 115.31190287 -24.42098262 109.25320405 -26.53271484 99.55297852 C-27.1852328 94.59159197 -27.12244212 89.69374045 -27.09765625 84.6953125 C-27.0962413 83.61619598 -27.09482635 82.53707947 -27.09336853 81.42526245 C-27.08778844 77.99181298 -27.07523955 74.55842964 -27.0625 71.125 C-27.05748243 68.79166761 -27.05291997 66.4583342 -27.04882812 64.125 C-27.03782552 58.41664133 -27.02057456 52.70833187 -27 47 C-31.95 47 -36.9 47 -42 47 C-42 40.4 -42 33.8 -42 27 C-37.05 27 -32.1 27 -27 27 C-27 19.41 -27 11.82 -27 4 C-21.43125 3.01 -21.43125 3.01 -15.75 2 C-14.5856543 1.79117188 -13.42130859 1.58234375 -12.22167969 1.3671875 C-11.29774414 1.20476563 -10.37380859 1.04234375 -9.421875 0.875 C-8.47924805 0.70742188 -7.53662109 0.53984375 -6.56542969 0.3671875 C-4 0 -4 0 0 0 Z " fill="#02386F" transform="translate(412,684)"/>
<path d="M0 0 C0.66 0.33 1.32 0.66 2 1 C1.96279574 20.92378469 1.90287968 40.84737849 1.81609726 60.7710104 C1.77632717 70.02239196 1.74392437 79.27368871 1.72900391 88.52514648 C1.71597686 96.59090446 1.68898535 104.65647567 1.64538693 112.72212845 C1.62279574 116.99089312 1.60708791 121.25942762 1.60811615 125.52825737 C1.60886416 129.55112108 1.59085754 133.57347645 1.55883217 137.59620857 C1.5503549 139.06789454 1.54856843 140.53963766 1.55419731 142.01133728 C1.58340725 150.82665696 1.56696483 159.10020584 -4.73932266 165.86608028 C-10.40344743 171.10741588 -15.20833763 172.21545486 -22.79296875 172.36328125 C-23.52128906 172.24339844 -24.24960937 172.12351562 -25 172 C-27.23720087 168.64419869 -27.29247109 167.37093304 -27.42219543 163.43005371 C-27.46396408 162.27013916 -27.50573273 161.11022461 -27.54876709 159.91516113 C-27.58399475 158.6405603 -27.61922241 157.36595947 -27.65551758 156.05273438 C-27.69916204 154.69708803 -27.74327676 153.34145674 -27.78782654 151.98583984 C-28.1799051 139.53035716 -28.39328889 127.06930352 -28.56319141 114.60903168 C-28.67969119 106.24897093 -28.84691463 97.89668873 -29.14672852 89.54101562 C-31.28952689 28.67242256 -31.28952689 28.67242256 -19.06305599 14.33750153 C-13.47794124 8.48702321 -7.09996086 3.8488654 0 0 Z " fill="#01376E" transform="translate(655,416)"/>
<path d="M0 0 C1.1088707 -0.01134979 2.21774139 -0.02269958 3.36021423 -0.03439331 C5.17055649 -0.02999741 5.17055649 -0.02999741 7.01747131 -0.0255127 C8.93531685 -0.03821701 8.93531685 -0.03821701 10.89190674 -0.05117798 C14.39196021 -0.07336546 17.89177806 -0.07632611 21.39189219 -0.07443047 C24.31683007 -0.07431064 27.24171823 -0.08287943 30.16664225 -0.09120798 C37.06844984 -0.11043178 43.97013648 -0.1133295 50.8719635 -0.10656738 C57.98568655 -0.0999258 65.09889119 -0.12279747 72.2125091 -0.15988111 C78.32648386 -0.19059389 84.44029198 -0.20193651 90.55434233 -0.1980443 C94.20320576 -0.19597853 97.85166566 -0.20142873 101.50045586 -0.22593689 C105.57027809 -0.25237106 109.63900775 -0.2384644 113.70887756 -0.2208252 C114.91374817 -0.23408844 116.11861877 -0.24735168 117.36000061 -0.26101685 C126.46094562 -0.16925508 126.46094562 -0.16925508 130.13687134 2.81958008 C133.92088345 7.072388 134.85171706 9.5809625 134.6778717 15.43737793 C134.13509715 19.68628496 131.9871895 21.90330087 128.8653717 24.64440918 C125.35885587 27.16190773 123.60258195 27.52219187 119.33039856 27.5415802 C117.7111422 27.55231316 117.7111422 27.55231316 116.05917358 27.56326294 C114.86954514 27.56595184 113.67991669 27.56864075 112.45423889 27.57141113 C110.58094154 27.58126793 110.58094154 27.58126793 108.6697998 27.59132385 C104.52144637 27.61109525 100.37313165 27.62272799 96.2247467 27.63269043 C94.79658743 27.63673788 93.36842835 27.6408548 91.94026947 27.64504051 C85.22976021 27.66409519 78.51926196 27.67832479 71.80873084 27.68665248 C64.06429247 27.69642193 56.32014015 27.72273233 48.57580256 27.76315337 C42.58930366 27.79332623 36.60288668 27.80812251 30.61631322 27.81143349 C27.04121163 27.81378299 23.46641553 27.82272947 19.89139557 27.84789467 C15.90053179 27.87553252 11.91004334 27.87134061 7.91908264 27.86437988 C6.14678535 27.88359497 6.14678535 27.88359497 4.33868408 27.90319824 C-1.94051006 27.86322553 -5.83626674 27.67976386 -10.5721283 23.39440918 C-13.96301808 19.46811574 -15.24141431 16.44739485 -14.95884705 11.35144043 C-14.10648806 7.03798739 -11.77425118 4.25470331 -8.27585506 1.751091 C-5.24883504 0.2321864 -3.36737404 0.01306537 0 0 Z " fill="#01376E" transform="translate(396.57212829589844,240.6055908203125)"/>
<path d="M0 0 C1.03314331 -0.00708481 2.06628662 -0.01416962 3.1307373 -0.02146912 C4.81484459 -0.01775299 4.81484459 -0.01775299 6.53297424 -0.01396179 C7.7237558 -0.01907272 8.91453735 -0.02418365 10.1414032 -0.02944946 C13.39971822 -0.04095503 16.65787521 -0.0434211 19.91620517 -0.04088616 C22.63981971 -0.0398147 25.36341092 -0.04470428 28.08702046 -0.04949158 C34.51417263 -0.06057763 40.94126636 -0.06102922 47.36842346 -0.05497742 C53.99123738 -0.04893713 60.61383887 -0.06125196 67.23661655 -0.08254749 C72.93019602 -0.10017967 78.62370797 -0.10616232 84.31731373 -0.10290974 C87.71456593 -0.10109936 91.11166657 -0.10370845 94.50889397 -0.11762428 C98.29833753 -0.12995189 102.08728864 -0.12321852 105.87672424 -0.11161804 C106.9974382 -0.11926178 108.11815216 -0.12690552 109.27282715 -0.13478088 C114.83393181 -0.09712768 119.01763201 0.02137923 123.76954651 3.26069641 C128.69743782 8.72133273 128.69743782 8.72133273 128.85939026 12.17866516 C128.43610971 18.48445994 126.48787448 22.05550225 121.76954651 26.26069641 C119.2589211 27.51600912 117.52758174 27.40062488 114.71676636 27.42132568 C113.11229897 27.43639412 113.11229897 27.43639412 111.47541809 27.45176697 C110.29671143 27.45759796 109.11800476 27.46342896 107.90357971 27.46943665 C106.04732216 27.48411232 106.04732216 27.48411232 104.15356445 27.49908447 C100.04249518 27.52909297 95.93146072 27.55074125 91.82032776 27.56929016 C90.77088096 27.57423614 90.77088096 27.57423614 89.70023322 27.57928205 C83.10036941 27.61006887 76.50050102 27.63677405 69.90058613 27.65370083 C61.46248244 27.67559614 53.02501601 27.71753769 44.58716708 27.7871384 C38.65246286 27.83442582 32.71793025 27.85864081 26.78304356 27.86589772 C23.23958942 27.87084794 19.69685326 27.88586564 16.15360451 27.92564201 C12.19637722 27.96947884 8.23996442 27.96560084 4.28248596 27.9577179 C3.11390045 27.97771851 1.94531494 27.99771912 0.74131775 28.01832581 C-5.61814552 27.96144595 -9.42167661 27.3787911 -14.04145527 22.8416605 C-16.58541299 19.45906016 -16.68441446 15.69245887 -16.64451599 11.61616516 C-15.9218032 7.50488389 -13.45738335 4.78764149 -10.23045349 2.26069641 C-6.69015347 0.60049163 -3.89761903 0.00894358 0 0 Z " fill="#02386F" transform="translate(398.23045349121094,365.7393035888672)"/>
<path d="M0 0 C0 8.25 0 16.5 0 25 C-3.9290625 24.87625 -3.9290625 24.87625 -7.9375 24.75 C-15.69637991 24.67570659 -21.98226886 25.15360068 -27.83203125 30.75390625 C-31.71814829 35.11327407 -33.11743056 37.74176637 -33.20532227 43.64306641 C-33.22526749 44.82413971 -33.24521271 46.00521301 -33.26576233 47.22207642 C-33.29083107 49.14242203 -33.29083107 49.14242203 -33.31640625 51.1015625 C-33.33718735 52.40829926 -33.35796844 53.71503601 -33.37937927 55.06137085 C-33.43459294 58.536689 -33.48400525 62.01206653 -33.53222656 65.48748779 C-33.58244677 69.0333789 -33.63807723 72.57918479 -33.69335938 76.125 C-33.80144502 83.08326821 -33.90047304 90.04158297 -34 97 C-42.91 97 -51.82 97 -61 97 C-61 65.32 -61 33.64 -61 1 C-52.42 1 -43.84 1 -35 1 C-34.505 7.93 -34.505 7.93 -34 15 C-32.700625 13.1746875 -32.700625 13.1746875 -31.375 11.3125 C-24.48796436 2.2048781 -11.76458551 -5.88229275 0 0 Z " fill="#00376E" transform="translate(315,710)"/>
<path d="M0 0 C8.91 0 17.82 0 27 0 C27 31.68 27 63.36 27 96 C18.09 96 9.18 96 0 96 C0 64.32 0 32.64 0 0 Z " fill="#00396F" transform="translate(735,711)"/>
<path d="M0 0 C8.91 0 17.82 0 27 0 C27 31.68 27 63.36 27 96 C18.09 96 9.18 96 0 96 C0 64.32 0 32.64 0 0 Z " fill="#03386F" transform="translate(330,711)"/>
<path d="M0 0 C3.83084349 2.61193874 6.65161815 5.67823629 8.75 9.875 C9.20101677 16.64025152 8.3017878 20.70726342 3.9375 26.125 C-0.64114628 29.78791702 -5.51759124 30.4680078 -11.25 29.875 C-15.67478418 28.48862297 -19.16269677 26.61873813 -21.75 22.6875 C-24.05589022 17.88013066 -24.26708043 12.93827775 -22.58984375 7.88671875 C-20.65086703 3.96679612 -18.1557937 1.4796548 -14.2421875 -0.46875 C-9.3115736 -2.09295223 -4.84341854 -1.67656796 0 0 Z " fill="#02366E" transform="translate(350.25,669.125)"/>
<path d="M0 0 C3.65114108 2.42843337 5.80603487 5.27675592 7.1875 9.4375 C8.09996202 14.75235607 7.57516944 19.38180968 4.58203125 23.9296875 C1.03551872 27.76429209 -3.24860451 29.21408636 -8.3125 29.9375 C-13.37639549 29.21408636 -17.66051872 27.76429209 -21.20703125 23.9296875 C-24.20016944 19.38180968 -24.72496202 14.75235607 -23.8125 9.4375 C-22.43103487 5.27675592 -20.27614108 2.42843337 -16.625 0 C-11.19670712 -2.68508706 -5.42829288 -2.68508706 0 0 Z " fill="#02366E" transform="translate(756.8125,669.5625)"/>
<path d="M0 0 C5.87149781 4.93739588 7.74795235 9.48771408 9 17 C-3.54 17 -16.08 17 -29 17 C-28.00325238 9.02601901 -27.25277249 6.00255922 -21.5625 0.75 C-14.28880662 -4.21740036 -7.7757823 -4.17588309 0 0 Z " fill="#F6F8FA" transform="translate(504,732)"/>
<path d="M0 0 C5.87095133 3.27537285 7.96844984 8.97683239 9.85546875 15.03515625 C9.85546875 16.02515625 9.85546875 17.01515625 9.85546875 18.03515625 C-2.68453125 18.03515625 -15.22453125 18.03515625 -28.14453125 18.03515625 C-27.09508443 10.68902854 -25.63840945 7.04188117 -20.14453125 2.28515625 C-13.49168969 -2.70447492 -7.77109731 -3.23169424 0 0 Z " fill="#F6F8FA" transform="translate(924.14453125,730.96484375)"/>
<path d="M0 0 C8.91 0 17.82 0 27 0 C27 31.68 27 63.36 27 96 C18.09 96 9.18 96 0 96 C0 64.32 0 32.64 0 0 Z M2 1 C2 31.69 2 62.38 2 94 C9.59 94 17.18 94 25 94 C25 63.31 25 32.62 25 1 C17.41 1 9.82 1 2 1 Z " fill="#012763" transform="translate(735,711)"/>
<path d="M0 0 C8.58 0 17.16 0 26 0 C26 4.95 26 9.9 26 15 C24 12 24 12 24 2 C16.74 2 9.48 2 2 2 C2 32.36 2 62.72 2 94 C9.59 94 17.18 94 25 94 C25 94.33 25 94.66 25 95 C12.625 95.495 12.625 95.495 0 96 C0 64.32 0 32.64 0 0 Z " fill="#052F68" transform="translate(254,711)"/>
<path d="M0 0 C0.66 0.33 1.32 0.66 2 1 C1.67 1.66 1.34 2.32 1 3 C0.89426376 4.93823379 0.85335535 6.88011625 0.84178162 8.82119751 C0.82709839 10.68064247 0.82709839 10.68064247 0.81211853 12.57765198 C0.80621397 13.9588314 0.80040355 15.34001123 0.79467773 16.72119141 C0.78510173 18.16974672 0.77509182 19.61829922 0.76467896 21.06684875 C0.7375937 25.00666937 0.71660378 28.94650201 0.69667697 32.88636446 C0.67483971 37.00103743 0.64743999 41.11567319 0.62062073 45.23031616 C0.57066322 53.02528362 0.52573576 60.8202717 0.48259836 68.61527956 C0.43325209 77.48821671 0.3783243 86.36111654 0.32291877 95.23401761 C0.20905179 113.48931043 0.10222304 131.74463846 0 150 C-0.33 150 -0.66 150 -1 150 C-1.33 102.15 -1.66 54.3 -2 5 C-3.98 5.99 -3.98 5.99 -6 7 C-4.02 4.69 -2.04 2.38 0 0 Z " fill="#074477" transform="translate(655,416)"/>
<path d="M0 0 C1.08174162 3.36541838 0.92538169 4.29847322 0 8 C-9.57 8 -19.14 8 -29 8 C-29.33 6.35 -29.66 4.7 -30 3 C-29.34 3.66 -28.68 4.32 -28 5 C-25.18597317 5.37239227 -25.18597317 5.37239227 -21.8984375 5.4140625 C-20.68671875 5.45273437 -19.475 5.49140625 -18.2265625 5.53125 C-16.95554688 5.5621875 -15.68453125 5.593125 -14.375 5.625 C-13.09625 5.66367187 -11.8175 5.70234375 -10.5 5.7421875 C-7.33347983 5.83671049 -4.1669696 5.92226357 -1 6 C-0.67 4.02 -0.34 2.04 0 0 Z " fill="#022260" transform="translate(214,799)"/>
<path d="M0 0 C1.40668945 0.00966797 1.40668945 0.00966797 2.84179688 0.01953125 C4.30649414 0.04466797 4.30649414 0.04466797 5.80078125 0.0703125 C6.78884766 0.07933594 7.77691406 0.08835937 8.79492188 0.09765625 C11.23447831 0.12122684 13.67391026 0.15709781 16.11328125 0.1953125 C16.11328125 5.1453125 16.11328125 10.0953125 16.11328125 15.1953125 C14.11328125 12.1953125 14.11328125 12.1953125 14.11328125 2.1953125 C6.85328125 2.1953125 -0.40671875 2.1953125 -7.88671875 2.1953125 C-4.63281887 0.02604591 -3.75275918 -0.04548799 0 0 Z " fill="#052764" transform="translate(263.88671875,710.8046875)"/>
<path d="M0 0 C0.66 0.66 1.32 1.32 2 2 C4.91487922 2.27876767 4.91487922 2.27876767 8.3203125 2.1953125 C9.57714844 2.18886719 10.83398438 2.18242188 12.12890625 2.17578125 C13.44761719 2.15902344 14.76632812 2.14226563 16.125 2.125 C17.46483721 2.11496983 18.80468152 2.10584404 20.14453125 2.09765625 C23.42986573 2.07402075 26.71484465 2.04107234 30 2 C30 2.99 30 3.98 30 5 C20.43 5 10.86 5 1 5 C0.67 3.35 0.34 1.7 0 0 Z " fill="#062C67" transform="translate(577,802)"/>
<path d="M0 0 C8.25 0 16.5 0 25 0 C25 0.66 25 1.32 25 2 C17.08 2 9.16 2 1 2 C1.33 3.32 1.66 4.64 2 6 C1.01 6.99 0.02 7.98 -1 9 C-0.67 6.03 -0.34 3.06 0 0 Z " fill="#032361" transform="translate(147,675)"/>
<path d="M0 0 C0.66 0.33 1.32 0.66 2 1 C1.34 1.66 0.68 2.32 0 3 C0 3.99 0 4.98 0 6 C0.66 6.66 1.32 7.32 2 8 C-2.43076923 10.09230769 -2.43076923 10.09230769 -5.3125 9.625 C-5.869375 9.41875 -6.42625 9.2125 -7 9 C-5.03681826 5.46627288 -2.95929119 2.75520215 0 0 Z " fill="#0A2D67" transform="translate(458,541)"/>
<path d="M0 0 C0.33 0 0.66 0 1 0 C1.1799928 5.21979128 0.97094808 9.07262981 -1 14 C-1.66 14 -2.32 14 -3 14 C-2.58846263 9.02906176 -2.20399168 4.55491614 0 0 Z " fill="#082B67" transform="translate(685,712)"/>
<path d="M0 0 C4.2742558 1.5830577 6.26531794 4.50568404 9 8 C6 8 6 8 4.39453125 6.7578125 C3.87246094 6.21898437 3.35039063 5.68015625 2.8125 5.125 C2.28269531 4.59132812 1.75289062 4.05765625 1.20703125 3.5078125 C0 2 0 2 0 0 Z " fill="#1C3D73" transform="translate(736,249)"/>
<path d="M0 0 C0.66 0 1.32 0 2 0 C0.79618552 2.49361571 -0.45428722 4.68143083 -2 7 C-4.625 7.6875 -4.625 7.6875 -7 8 C-6.02133662 6.85373678 -5.04205413 5.70800212 -4.0625 4.5625 C-3.51722656 3.92441406 -2.97195313 3.28632813 -2.41015625 2.62890625 C-1.63204305 1.73008851 -0.84063472 0.84063472 0 0 Z " fill="#11346C" transform="translate(560,384)"/>
<path d="M0 0 C3.7952131 1.49097658 5.61042731 3.75700849 8 7 C4.0521912 7 2.81491174 5.66275435 0 3 C0 2.01 0 1.02 0 0 Z " fill="#1B4074" transform="translate(618,217)"/>
<path d="M0 0 C0.66 0.33 1.32 0.66 2 1 C1.34 3.64 0.68 6.28 0 9 C-0.66 8.67 -1.32 8.34 -2 8 C-2.125 5.125 -2.125 5.125 -2 2 C-1.34 1.34 -0.68 0.68 0 0 Z " fill="#E6F0F3" transform="translate(595,758)"/>
<path d="M0 0 C1.2380014 3.57644848 0.74926071 6.33694766 0 10 C-0.66 10 -1.32 10 -2 10 C-1.85950482 8.52031676 -1.71245174 7.04125484 -1.5625 5.5625 C-1.48128906 4.73878906 -1.40007812 3.91507813 -1.31640625 3.06640625 C-1 1 -1 1 0 0 Z " fill="#082A65" transform="translate(133,728)"/>
<path d="M0 0 C0.33 1.32 0.66 2.64 1 4 C-0.65 5.32 -2.3 6.64 -4 8 C-4 4.09161134 -2.49432124 2.88405893 0 0 Z " fill="#0C306B" transform="translate(337,172)"/>
<path d="M0 0 C1.32 0 2.64 0 4 0 C3.34 1.32 2.68 2.64 2 4 C1.01 4 0.02 4 -1 4 C-0.67 2.68 -0.34 1.36 0 0 Z " fill="#0A2A63" transform="translate(445,539)"/>
</svg>
